<svg xmlns="http://www.w3.org/2000/svg" viewBox="7 -15 720.5999999999999 315" width="720.5999999999999" height="315">
<rect x="7" y="-15" width="720.5999999999999" height="315" fill="#FAF8F4" />
<path d="M 200 180 L 255.2805934658482 211.91626551846971" fill="none" stroke="#8A7F70" stroke-width="1.2" />
<path d="M 200 180 L 222.5307897407323 264.0860520470645" fill="none" stroke="#8A7F70" stroke-width="1.2" />
<path d="M 200 180 L 185.99111912129533 218.48908388607072" fill="none" stroke="#8A7F70" stroke-width="1.2" />
<path d="M 200 180 L 160.98799067839792 198.19159870667724" fill="none" stroke="#8A7F70" stroke-width="1.2" />
<path d="M 200 180 L 122.91504143828305 166.4078419987753" fill="none" stroke="#8A7F70" stroke-width="1.2" />
<path d="M 200 180 L 158.9337099666683 138.93370996666832" fill="none" stroke="#8A7F70" stroke-width="1.2" />
<path d="M 200 180 L 185.83574387580882 99.6705117544657" fill="none" stroke="#8A7F70" stroke-width="1.2" />
<path d="M 200 180 L 218.59598271233446 140.12078637972263" fill="none" stroke="#8A7F70" stroke-width="1.2" />
<path d="M 200 180 L 264.7258511807823 156.44171678265133" fill="none" stroke="#8A7F70" stroke-width="1.2" />
<path d="M 200 180 L 270.74826917542117 198.95694159145378" fill="none" stroke="#8A7F70" stroke-width="1.2" />
<path d="M 200 180 L 236.2682585084797 223.2228273746162" fill="none" stroke="#8A7F70" stroke-width="1.2" />
<path d="M 200 180 L 200 227.0897746363397" fill="none" stroke="#8A7F70" stroke-width="1.2" />
<path d="M 200 180 L 153.54884544012978 235.35833032687427" fill="none" stroke="#8A7F70" stroke-width="1.2" />
<path d="M 200 180 L 134.3264162795928 191.580024729724" fill="none" stroke="#8A7F70" stroke-width="1.2" />
<path d="M 200 180 L 133.30974462400755 141.49636310634585" fill="none" stroke="#8A7F70" stroke-width="1.2" />
<path d="M 200 180 L 171.62645637851128 102.04432959004917" fill="none" stroke="#8A7F70" stroke-width="1.2" />
<path d="M 200 180 L 216.76111336784496 133.9492194969269" fill="none" stroke="#8A7F70" stroke-width="1.2" />
<path d="M 200 180 L 235.61891084401276 159.43541223596793" fill="none" stroke="#8A7F70" stroke-width="1.2" />
<path d="M 200 180 L 241.69091900128754 138.30908099871243" fill="none" stroke="#946050" stroke-width="1.8" />
<path d="M 200 180 L 261.6520193971777 128.26781326249366" fill="none" stroke="#946050" stroke-width="1.8" />
<path d="M 200 180 L 263.83768736094305 143.1432940177163" fill="none" stroke="#946050" stroke-width="1.8" />
<path d="M 200 180 L 271.9108131161468 153.82660450384296" fill="none" stroke="#946050" stroke-width="1.8" />
<path d="M 560 180 L 540 195" fill="none" stroke="#8A7F70" stroke-width="1" />
<path d="M 560 180 L 570 200" fill="none" stroke="#8A7F70" stroke-width="1" />
<path d="M 560 180 L 545 170" fill="none" stroke="#8A7F70" stroke-width="1" />
<path d="M 560 180 L 610 140" fill="none" stroke="#946050" stroke-width="3" marker-end="url(#arrowhead)" />
<text x="200" y="24" font-family="Virgil, Segoe UI Emoji, sans-serif" font-size="14" fill="#3A342C" text-anchor="middle">RL — PER-TOKEN GRADIENTS &amp; THEIR AVERAGE</text>
<text x="200" y="58" font-family="Virgil, Segoe UI Emoji, sans-serif" font-size="13" fill="#8A7F70" text-anchor="middle">individual per-token gradient vectors</text>
<text x="200" y="271" font-family="Virgil, Segoe UI Emoji, sans-serif" font-size="11" fill="#8A7F70" text-anchor="middle">N noisy vectors, mean ≈ 0</text>
<text x="380" y="184" font-family="Virgil, Segoe UI Emoji, sans-serif" font-size="14" fill="#3A342C" text-anchor="middle">average →</text>
<text x="560" y="58" font-family="Virgil, Segoe UI Emoji, sans-serif" font-size="13" fill="#8A7F70" text-anchor="middle">batch-averaged update</text>
<text x="630" y="137" font-family="Virgil, Segoe UI Emoji, sans-serif" font-size="12" fill="#946050" text-anchor="middle">surviving signal</text>
<text x="630" y="153" font-family="Virgil, Segoe UI Emoji, sans-serif" font-size="11" fill="#946050" text-anchor="middle">(dimensions correlated</text>
<text x="630" y="168" font-family="Virgil, Segoe UI Emoji, sans-serif" font-size="11" fill="#946050" text-anchor="middle">with reward)</text>
<text x="560" y="271" font-family="Virgil, Segoe UI Emoji, sans-serif" font-size="11" fill="#8A7F70" text-anchor="middle">noise cancels, bias survives</text>

<defs><marker id="arrowhead" markerWidth="10" markerHeight="7" refX="10" refY="3.5" orient="auto"><polygon points="0 0, 10 3.5, 0 7" fill="#1e1e2e" /></marker></defs>
</svg>