<svg xmlns="http://www.w3.org/2000/svg" viewBox="29.4 -5 732.9000000000001 421" width="732.9000000000001" height="421">
<rect x="29.4" y="-5" width="732.9000000000001" height="421" fill="#FAF8F4" />
<path d="M 100 60 L 100 340" fill="none" stroke="#3A342C" stroke-width="2" />
<path d="M 100 340 L 720 340" fill="none" stroke="#3A342C" stroke-width="2" />
<path d="M 110 140 L 700 140" fill="none" stroke="#8A7F70" stroke-width="1" />
<path d="M 110 330 L 150 290" fill="none" stroke="#6A8E72" stroke-width="3" />
<path d="M 150 290 L 200 250" fill="none" stroke="#6A8E72" stroke-width="3" />
<path d="M 200 250 L 260 220" fill="none" stroke="#6A8E72" stroke-width="3" />
<path d="M 260 220 L 320 200" fill="none" stroke="#6A8E72" stroke-width="3" />
<path d="M 320 200 L 380 188" fill="none" stroke="#6A8E72" stroke-width="3" />
<path d="M 380 188 L 440 182" fill="none" stroke="#6A8E72" stroke-width="3" />
<path d="M 440 182 L 500 178" fill="none" stroke="#6A8E72" stroke-width="3" />
<path d="M 500 178 L 560 175" fill="none" stroke="#6A8E72" stroke-width="3" />
<path d="M 560 175 L 620 173" fill="none" stroke="#6A8E72" stroke-width="3" />
<path d="M 620 173 L 680 172" fill="none" stroke="#6A8E72" stroke-width="3" />
<path d="M 110 330 L 150 278" fill="none" stroke="#A08858" stroke-width="2" />
<path d="M 150 278 L 200 235" fill="none" stroke="#A08858" stroke-width="2" />
<path d="M 200 235 L 260 205" fill="none" stroke="#A08858" stroke-width="2" />
<path d="M 260 205 L 320 185" fill="none" stroke="#A08858" stroke-width="2" />
<path d="M 320 185 L 380 175" fill="none" stroke="#A08858" stroke-width="2" />
<path d="M 380 175 L 440 168" fill="none" stroke="#A08858" stroke-width="2" />
<path d="M 440 168 L 500 164" fill="none" stroke="#A08858" stroke-width="2" />
<path d="M 500 164 L 560 162" fill="none" stroke="#A08858" stroke-width="2" />
<path d="M 560 162 L 620 160" fill="none" stroke="#A08858" stroke-width="2" />
<path d="M 620 160 L 680 158" fill="none" stroke="#A08858" stroke-width="2" />
<path d="M 110 332 L 150 325" fill="none" stroke="#5A7068" stroke-width="3" />
<path d="M 150 325 L 200 310" fill="none" stroke="#5A7068" stroke-width="3" />
<path d="M 200 310 L 260 280" fill="none" stroke="#5A7068" stroke-width="3" />
<path d="M 260 280 L 320 230" fill="none" stroke="#5A7068" stroke-width="3" />
<path d="M 320 230 L 380 180" fill="none" stroke="#5A7068" stroke-width="3" />
<path d="M 380 180 L 440 155" fill="none" stroke="#5A7068" stroke-width="3" />
<path d="M 440 155 L 500 143" fill="none" stroke="#5A7068" stroke-width="3" />
<path d="M 500 143 L 560 138" fill="none" stroke="#5A7068" stroke-width="3" />
<path d="M 560 138 L 620 135" fill="none" stroke="#5A7068" stroke-width="3" />
<path d="M 620 135 L 680 133" fill="none" stroke="#5A7068" stroke-width="3" />
<path d="M 110 335 L 150 330" fill="none" stroke="#946050" stroke-width="3" />
<path d="M 150 330 L 200 320" fill="none" stroke="#946050" stroke-width="3" />
<path d="M 200 320 L 260 300" fill="none" stroke="#946050" stroke-width="3" />
<path d="M 260 300 L 320 260" fill="none" stroke="#946050" stroke-width="3" />
<path d="M 320 260 L 380 210" fill="none" stroke="#946050" stroke-width="3" />
<path d="M 380 210 L 440 160" fill="none" stroke="#946050" stroke-width="3" />
<path d="M 440 160 L 500 120" fill="none" stroke="#946050" stroke-width="3" />
<path d="M 500 120 L 560 95" fill="none" stroke="#946050" stroke-width="3" />
<path d="M 560 95 L 620 78" fill="none" stroke="#946050" stroke-width="3" />
<path d="M 620 78 L 680 65" fill="none" stroke="#946050" stroke-width="3" />
<text x="400" y="38" font-family="Virgil, Segoe UI Emoji, sans-serif" font-size="18" fill="#3A342C" text-anchor="middle">PERFORMANCE VS COMPUTE</text>
<text x="70" y="73" font-family="Virgil, Segoe UI Emoji, sans-serif" font-size="13" fill="#8A7F70" text-anchor="middle">perf</text>
<text x="710" y="363" font-family="Virgil, Segoe UI Emoji, sans-serif" font-size="13" fill="#8A7F70" text-anchor="middle">compute</text>
<text x="710" y="142" font-family="Virgil, Segoe UI Emoji, sans-serif" font-size="12" fill="#8A7F70" text-anchor="middle">teacher</text>
<text x="580" y="171" font-family="Virgil, Segoe UI Emoji, sans-serif" font-size="16" fill="#6A8E72" text-anchor="middle">SFT</text>
<text x="580" y="152" font-family="Virgil, Segoe UI Emoji, sans-serif" font-size="14" fill="#A08858" text-anchor="middle">SFT-RS</text>
<text x="530" y="126" font-family="Virgil, Segoe UI Emoji, sans-serif" font-size="16" fill="#5A7068" text-anchor="middle">OPD</text>
<text x="400" y="66" font-family="Virgil, Segoe UI Emoji, sans-serif" font-size="16" fill="#946050" text-anchor="middle">RL</text>
<text x="400" y="387" font-family="Virgil, Segoe UI Emoji, sans-serif" font-size="12" fill="#8A7F70" text-anchor="middle">Off-policy methods cap below teacher; OPD reaches it; only RL is unbounded.</text>
</svg>