<svg viewBox="0 0 720 340" xmlns="http://www.w3.org/2000/svg">
  <text x="20" y="28" font-family="JetBrains Mono, monospace" font-size="11" fill="#1c1916" font-weight="500" letter-spacing="1.5">TEACHER PARETO CURVE</text>

  <line x1="80" y1="60" x2="80" y2="290" stroke="#3a342c" stroke-width="1.5"></line>
  <line x1="80" y1="290" x2="660" y2="290" stroke="#3a342c" stroke-width="1.5"></line>

  <text x="74" y="55" text-anchor="end" font-family="JetBrains Mono, monospace" font-size="10" fill="#1c1916">expected</text>
  <text x="74" y="67" text-anchor="end" font-family="JetBrains Mono, monospace" font-size="10" fill="#1c1916">reward gain</text>
  <text x="74" y="79" text-anchor="end" font-family="JetBrains Mono, monospace" font-size="10" fill="#6b6357">E[R(π_T) − R(π_θ)]</text>
  <text x="660" y="308" text-anchor="end" font-family="JetBrains Mono, monospace" font-size="10" fill="#1c1916">teacher distance from student</text>
  <text x="660" y="320" text-anchor="end" font-family="JetBrains Mono, monospace" font-size="10" fill="#6b6357">KL(π_T ‖ π_θ)</text>

  <path d="M 95 285 Q 250 200 400 140 Q 550 100 645 90" fill="none" stroke="#8a3324" stroke-width="2.5"></path>
  <text x="600" y="78" font-family="Fraunces, serif" font-style="italic" font-size="12" fill="#8a3324">Pareto frontier</text>

  <path d="M 130 273 Q 240 245 360 220 Q 470 200 560 188 Q 540 230 410 250 Q 270 268 130 273 Z" fill="#8b8275" opacity="0.2" stroke="#6b6357" stroke-width="0.7" stroke-dasharray="3,3"></path>
  <text x="320" y="245" text-anchor="middle" font-family="Fraunces, serif" font-size="13" font-weight="500" fill="#3a342c">OPSD / SDFT region</text>
  <text x="320" y="259" text-anchor="middle" font-family="Spectral, serif" font-style="italic" font-size="10" fill="#3a342c">position depends on hint strategy &amp; concentration</text>

  <circle cx="290" cy="180" r="5" fill="#2c4a3e"></circle>
  <text x="303" y="178" font-family="Fraunces, serif" font-size="13" font-weight="500" fill="#2c4a3e">OPD</text>
  <text x="303" y="190" font-family="Spectral, serif" font-style="italic" font-size="10" fill="#3a342c">same-family teacher</text>

  <circle cx="540" cy="107" r="5" fill="#b67430"></circle>
  <text x="525" y="100" text-anchor="end" font-family="Fraunces, serif" font-size="13" font-weight="500" fill="#b67430">SFT</text>
  <text x="525" y="113" text-anchor="end" font-family="Spectral, serif" font-style="italic" font-size="10" fill="#3a342c">strong cross-family teacher</text>

  <circle cx="95" cy="285" r="3" fill="#1c1916"></circle>
  <line x1="95" y1="285" x2="200" y2="227" stroke="#1c1916" stroke-width="2.5"></line>
  <polygon points="200,227 192,226 195,232" fill="#1c1916"></polygon>
  <text x="208" y="222" font-family="Fraunces, serif" font-size="13" font-weight="500" fill="#1c1916">RL</text>

  <text x="370" y="332" text-anchor="middle" font-family="JetBrains Mono, monospace" font-size="10" fill="#3a342c">max<tspan font-size="8" dy="2">π_T</tspan><tspan dy="-2">  E[R(π_T) − R(π_θ)]  −  β · KL(π_T ‖ π_θ)</tspan></text>
</svg>